<svg xmlns="http://www.w3.org/2000/svg" viewBox="0 0 180.44 133.54"><defs><style>.cls-1,.cls-2{fill:#fff;}.cls-2{font-size:18px;font-family:Arvo;}</style></defs><g id="Layer_2" data-name="Layer 2"><g id="Layer_3" data-name="Layer 3"><path class="cls-1" d="M47.2,7.43c-.13.06,1.65,4.31,1.61,6.11,0,2.15.09,3-.92,5.08-1.35,2.74-1.69,7.09.44,9.11,1.82,1.72,4.87,1.2,6.11,1a7.28,7.28,0,0,0,4.45-2c2.17-2.34,1.53-5.67,1.44-6.11-.55-3.82-1-10.77-1.55-11.83-1.2.92-1.68,3.53-2.93,6.16a35.74,35.74,0,0,0-2.66,10.37,22.57,22.57,0,0,0-1.93-9.78C50.12,13.12,47.51,7.3,47.2,7.43Z"/><path class="cls-1" d="M51.2,13.38c.69-1.41,1.34-2.84,2-4.25.81,1.15,1.6,2.82,2.42,4-.81,1.91-1.58,2.53-2.39,4.44C52.57,15.88,51.89,15,51.2,13.38Z"/><path class="cls-1" d="M24.89,78.65c-.5-6.13-.5-14.84,6.26-17.69a18.34,18.34,0,0,1,12,.36c5.54,2,7.92,8.19,7.79,13.72C50.32,85.86,37.17,95.86,26.55,93c-15.22-4.61-18-31.3-4.67-39.6,3.2-2.14,8.63-1.76,11.54-3,2.75-1,3.67-4.16,3.78-6.82.26-3.35-3.29-4.08-5.9-3.47-3,1.31-5,4.65-5.32,7.89a17.14,17.14,0,0,0,.67,6.51C31.55,77,45.31,95.62,63.16,109.65h0l-3.88,1.91c.19-4.12-.15-8.28-.12-12.48C59,78.25,60.53,59.61,77,44.79a26,26,0,0,1,13-5.61c7.76-1.84,14.76,2.71,17.12,10a.69.69,0,0,1-1.05.76c-4.92-3.63-8.82-6.69-14-4-7.75,4.35-14.17,11.66-18.25,19.4-3.41,6.65-4.62,14.9-6.49,22.22-2.23,9.41-3.67,19.11-3,28.82l-4-2.88c-20-14.1-34.76-34.29-39.82-58.44-2.2-7.93,1-17.85,9.34-20.69,4.3-1,9.37,0,11.88,4.08,2.47,4.47,1.08,10.41-2,14.18a10.77,10.77,0,0,1-4.25,2.9c-4.16,1.59-7.53.74-10.84,2.38-8.53,5.43-7.9,20.16-2.1,27.48C30.56,96,48.94,84.56,48.28,73.15c-.12-4.1-1.91-8.32-5.9-10s-10.26-2.44-13.52,1.2c-3.25,3.85-3.13,9.42-2.93,14.3a.52.52,0,1,1-1,0Z"/><line class="cls-1" x1="53.78" y1="29.84" x2="53.78" y2="79.17"/><path class="cls-1" d="M53.78,29.84a181.46,181.46,0,0,1,1.5,24.67,177,177,0,0,1-1.5,24.66,177,177,0,0,1-1.5-24.66,180,180,0,0,1,1.5-24.67Z"/><text class="cls-2" transform="translate(76.89 81.54)">ingåker<tspan x="0" y="21.6">Bruk</tspan></text><text/></g></g></svg>